<?xml version="1.0" encoding="UTF-8"?>
<svg id="Layer_1" data-name="Layer 1" xmlns="http://www.w3.org/2000/svg" viewBox="0 0 1200 1200">
  <defs>
    <style>
      .cls-1 {
        fill: #fff;
      }

      .cls-2 {
        fill: #036;
      }
    </style>
  </defs>
  <circle class="cls-2" cx="600" cy="600" r="600"/>
  <path class="cls-1" d="M946.57,651.23l89.91-145.31h-42.31l33.14-91.55-98.9,126.94h46.39l-33.03,107.72c-1.92-.59-3.95-.91-6.06-.91-1.07,0-2.11.11-3.13.26l-27.05-65.79c5.16-3.76,8.54-9.83,8.54-16.7,0-11.41-9.25-20.66-20.66-20.66s-20.66,9.25-20.66,20.66c0,.09.01.18.01.28l-73.62,18.88c-3.47-6.52-10.34-10.97-18.24-10.97-10.96,0-19.9,8.54-20.59,19.33l-75.86,13.28c-2.43-5.57-7.25-9.86-13.16-11.58l2.66-57.78,2.98-64.68c9.53-1.84,16.73-10.21,16.73-20.28,0-11.41-9.25-20.66-20.66-20.66-1.28,0-2.54.13-3.75.36l-31.29-69.96c3.9-3.76,6.34-9.03,6.34-14.87,0-11.41-9.25-20.66-20.66-20.66-7.99,0-14.9,4.54-18.34,11.17l-97.88-6.28c-1.7-9.7-10.14-17.07-20.33-17.07-11.41,0-20.66,9.25-20.66,20.66,0,.6.04,1.2.09,1.79l-89.48,29.6c-3.65-5.84-10.12-9.74-17.52-9.74-11.41,0-20.66,9.25-20.66,20.66,0,5.66,2.28,10.78,5.96,14.51l-74.07,119.72c-2.02-.66-4.18-1.03-6.43-1.03-11.41,0-20.66,9.25-20.66,20.66,0,7.42,3.93,13.91,9.8,17.55l-89.91,145.31h42.31l-33.14,91.55,98.9-126.94h-46.39l33.03-107.72c1.92.59,3.95.91,6.06.91,1.07,0,2.11-.11,3.13-.26l27.05,65.79c-5.17,3.76-8.54,9.83-8.54,16.7,0,11.41,9.25,20.66,20.66,20.66s20.66-9.25,20.66-20.66c0-.09-.01-.18-.01-.28l73.62-18.88c3.47,6.52,10.34,10.96,18.24,10.96,10.96,0,19.9-8.54,20.59-19.33l75.86-13.28c2.43,5.57,7.25,9.86,13.16,11.58l-2.66,57.72-2.98,64.73c-9.53,1.84-16.73,10.21-16.73,20.28,0,11.41,9.25,20.66,20.66,20.66,1.28,0,2.54-.13,3.75-.36l.71,1.59,30.58,68.37c-3.9,3.76-6.34,9.03-6.34,14.87,0,11.41,9.25,20.66,20.66,20.66,7.99,0,14.9-4.54,18.34-11.17l97.88,6.28c1.7,9.7,10.14,17.07,20.33,17.07,11.41,0,20.66-9.25,20.66-20.66,0-.6-.04-1.2-.09-1.79l89.48-29.6c3.65,5.84,10.12,9.75,17.52,9.75,11.41,0,20.66-9.25,20.66-20.66,0-5.66-2.28-10.78-5.96-14.51l74.07-119.72c2.02.66,4.18,1.03,6.43,1.03,11.41,0,20.66-9.25,20.66-20.66,0-7.42-3.93-13.91-9.8-17.55ZM840.51,801.98c-.44,0-.87.04-1.31.07l-18.87-60.74c6.02-3.61,10.07-10.18,10.07-17.71,0-1.21-.13-2.39-.33-3.55l89.18-38.8c.55.72,1.12,1.41,1.76,2.05l-74.07,119.72c-2.02-.66-4.18-1.03-6.43-1.03ZM278.99,516.71l74.07-119.72c2.02.66,4.18,1.03,6.43,1.03.44,0,.87-.04,1.31-.07l18.87,60.74c-6.02,3.61-10.07,10.18-10.07,17.71,0,1.21.13,2.39.33,3.55l-89.18,38.8c-.55-.72-1.12-1.41-1.76-2.05ZM789.11,722.95l-98.25,20.61c-.85-1.78-1.95-3.42-3.25-4.88l85.9-124.67c2.19.84,4.55,1.32,7.02,1.36l20.08,89.7c-6.65,3.28-11.26,10.02-11.5,17.87ZM547.26,743.44c-.46-2.21-1.28-4.29-2.38-6.18l109.5-104.94c2.17,1.39,4.62,2.39,7.25,2.89l4.77,97.41c-6.82,2.01-12.15,7.43-14.05,14.29l-105.08-3.48ZM612,364.32c3.31,2.25,7.31,3.57,11.61,3.57,2.04,0,4.01-.31,5.87-.86l30.86,69.01c-3.47,2.69-6.06,6.46-7.27,10.81l-105.08-3.48c-.54-2.61-1.57-5.03-2.99-7.18l66.99-71.87ZM647.01,605.73l-91.86-20.94c-.05-3.68-1.07-7.12-2.8-10.09l109.5-104.94c1.64,1.05,3.43,1.88,5.35,2.43l-5.64,122.46c-6.4,1.23-11.72,5.42-14.55,11.08ZM547.67,453.08l105.08,3.48c.46,2.21,1.28,4.29,2.39,6.18l-109.5,104.94c-2.17-1.39-4.62-2.39-7.25-2.89l-4.77-97.41c6.82-2.01,12.15-7.43,14.05-14.29ZM552.99,594.27l26.96,6.14,64.9,14.79c.05,3.68,1.07,7.12,2.8,10.09l-109.5,104.94c-1.64-1.05-3.43-1.88-5.34-2.43l5.64-122.46c6.4-1.23,11.72-5.42,14.55-11.08ZM765.5,608.49l-85.9,124.67c-1.13-.43-2.29-.78-3.51-1.01l-4.77-97.41c8.16-2.4,14.19-9.69,14.76-18.48l75.86-13.28c.89,2.03,2.1,3.88,3.55,5.51ZM605.45,357.09l-67.55,72.48c-2.99-1.69-6.45-2.66-10.13-2.66-.75,0-1.48.04-2.21.12l-26.88-74.89c3.82-2.6,6.72-6.45,8.12-10.97l96.15,6.17c.02,3.53.92,6.85,2.49,9.75ZM479.97,354.44c2.22.81,4.6,1.28,7.1,1.28.85,0,1.69-.07,2.51-.17l26.84,74.76c-5.43,3.59-9.06,9.67-9.27,16.61l-98.25,20.61c-.86-1.79-1.96-3.44-3.27-4.9l74.34-108.2ZM410.89,477.05l98.25-20.61c.85,1.78,1.95,3.42,3.25,4.88l-85.9,124.67c-2.19-.84-4.55-1.32-7.02-1.36l-20.08-89.7c6.65-3.28,11.26-10.02,11.5-17.88ZM434.5,591.51l85.9-124.67c1.13.43,2.29.78,3.51,1.01l4.77,97.41c-8.16,2.4-14.19,9.69-14.76,18.48l-75.86,13.28c-.89-2.03-2.1-3.88-3.55-5.51ZM539.65,763.96c3.47-2.69,6.06-6.46,7.26-10.81l105.08,3.48c.54,2.61,1.57,5.03,2.99,7.18l-66.98,71.87c-3.31-2.25-7.31-3.57-11.61-3.57-2.04,0-4.01.31-5.87.86l-23.44-52.41-7.42-16.59ZM594.55,842.91l67.55-72.47c2.99,1.69,6.45,2.66,10.13,2.66.75,0,1.48-.04,2.21-.12l26.88,74.89c-3.82,2.6-6.72,6.45-8.12,10.97l-96.15-6.17c-.02-3.53-.92-6.85-2.49-9.75ZM720.03,845.56c-2.22-.81-4.6-1.28-7.1-1.28-.85,0-1.69.07-2.51.17l-26.84-74.76c5.43-3.59,9.06-9.67,9.27-16.61l98.24-20.61c.86,1.79,1.96,3.44,3.27,4.9l-74.34,108.2ZM923.58,652.08c-5.16,3.76-8.53,9.83-8.53,16.7,0,1.21.13,2.39.33,3.55l-89.18,38.8c-.82-1.08-1.74-2.08-2.76-2.98l64.86-122.26c1.64.42,3.34.66,5.11.66,1.07,0,2.11-.11,3.13-.26l27.05,65.79ZM875.15,575.58c1.16,2.18,2.71,4.12,4.55,5.75l-64.86,122.26c-1.52-.39-3.11-.62-4.74-.64l-20.08-89.7c6.83-3.37,11.54-10.38,11.54-18.52,0-.1-.01-.19-.01-.29l73.62-18.87ZM469.6,346.06c.67,1.06,1.44,2.06,2.28,2.98l-74.26,108.09c-2.29-.87-4.76-1.37-7.36-1.37-.44,0-.87.04-1.31.07l-18.87-60.74c6.02-3.61,10.07-10.18,10.07-17.71,0-.57-.04-1.13-.09-1.69l89.53-29.62ZM276.42,547.93c5.16-3.76,8.54-9.83,8.54-16.7,0-1.21-.13-2.39-.33-3.55l89.18-38.8c.82,1.08,1.74,2.08,2.76,2.98l-64.86,122.26c-1.64-.42-3.34-.66-5.11-.66-1.07,0-2.11.11-3.13.26l-27.05-65.79ZM324.85,624.42c-1.16-2.18-2.71-4.12-4.55-5.75l64.86-122.26c1.52.39,3.11.62,4.75.64l20.08,89.7c-6.83,3.37-11.53,10.39-11.53,18.52,0,.1.01.19.01.29l-73.62,18.87ZM730.4,853.94c-.67-1.06-1.44-2.06-2.28-2.98l74.27-108.09c2.29.87,4.76,1.37,7.36,1.37.44,0,.87-.04,1.31-.07l18.87,60.74c-6.02,3.61-10.07,10.18-10.07,17.71,0,.57.04,1.13.09,1.69l-89.53,29.62Z"/>
</svg>