<?xml version="1.0" encoding="UTF-8"?>
<svg id="Layer_1" data-name="Layer 1" xmlns="http://www.w3.org/2000/svg" viewBox="0 0 1200 1200">
  <defs>
    <style>
      .cls-1 {
        fill: #036;
      }

      .cls-2 {
        fill: #0074b7;
      }

      .cls-3 {
        fill: #f5f5f5;
      }
    </style>
  </defs>
  <rect class="cls-1" x="-21.98" y="-21.98" width="1243.96" height="1243.96"/>
  <g>
    <path class="cls-2" d="M868.35,433.92h-4.58v13.24h-2.38v-13.24h-4.58v-2.16h11.53v2.16Z"/>
    <path class="cls-2" d="M883.77,431.76h3.96v15.4h-2.38v-10.74c0-.79.07-1.63.2-2.51h-.35l-4.55,13.24h-3.17l-4.55-13.24h-.35c.06.37.11.77.14,1.22.04.45.06.88.06,1.29v10.74h-2.38v-15.4h3.94l4.55,13.24h.35l4.53-13.24Z"/>
  </g>
  <g>
    <path class="cls-3" d="M301.96,738.29c-3.56-2.1-7.52-3.15-11.89-3.15h-54v88.59h54c4.37,0,8.34-1.05,11.89-3.15,3.56-2.1,6.34-5.03,8.36-8.81,2.01-3.77,3.02-8.01,3.02-12.73v-3.73c0-3.68-.84-6.94-2.51-9.77-1.67-2.83-4.18-5.1-7.52-6.81,3.34-1.71,5.85-4.11,7.52-7.2s2.51-6.43,2.51-10.03v-1.67c0-4.71-1.01-8.96-3.02-12.73-2.02-3.77-4.8-6.71-8.36-8.81ZM298.17,799.05c0,2.49-.79,4.65-2.38,6.49-1.59,1.84-3.49,2.76-5.72,2.76h-38.83v-22.37h38.83c2.23,0,4.13.94,5.72,2.83,1.58,1.89,2.38,4.11,2.38,6.69v3.6ZM298.17,762.27c0,2.49-.82,4.65-2.44,6.49-1.63,1.84-3.52,2.76-5.66,2.76h-38.83v-21.09h38.83c2.23,0,4.13.92,5.72,2.76,1.58,1.84,2.38,4.05,2.38,6.62v2.44Z"/>
    <path class="cls-3" d="M350.57,807.08c-1.24-.81-2.23-1.93-2.96-3.34-.73-1.41-1.09-2.94-1.09-4.56v-63.9h-15.17v63.9c0,4.37,1.01,8.44,3.02,12.21,2.01,3.77,4.76,6.77,8.23,9,3.47,2.23,7.35,3.34,11.64,3.34h39.6v-15.43h-39.22c-1.46,0-2.81-.41-4.05-1.22Z"/>
    <path class="cls-3" d="M467.5,799.05c0,2.49-.79,4.67-2.38,6.56-1.59,1.89-3.45,2.83-5.59,2.83h-30.86c-1.37,0-2.68-.43-3.92-1.29-1.24-.86-2.23-1.99-2.96-3.41-.73-1.41-1.09-2.98-1.09-4.69v-63.77h-15.17v63.77c0,4.46,1.03,8.59,3.09,12.41,2.06,3.82,4.89,6.84,8.49,9.06,3.6,2.23,7.46,3.34,11.57,3.34h30.86c4.2,0,8.08-1.16,11.64-3.47,3.56-2.31,6.36-5.36,8.42-9.13,2.06-3.77,3.09-7.84,3.09-12.21v-63.77h-15.17v63.77Z"/>
    <path class="cls-3" d="M513.28,738.49c-3.52,2.23-6.28,5.23-8.29,9-2.02,3.77-3.02,7.89-3.02,12.34v39.22c0,4.46,1.01,8.57,3.02,12.34,2.01,3.77,4.78,6.77,8.29,9,3.51,2.23,7.41,3.34,11.7,3.34h46.93v-15.43h-46.67c-2.31,0-4.24-.9-5.79-2.7-1.54-1.8-2.31-3.99-2.31-6.56v-13.12h47.32v-14.4h-47.32v-11.7c0-2.66.77-4.89,2.31-6.69,1.54-1.8,3.47-2.7,5.79-2.7h46.67v-15.3h-46.93c-4.29,0-8.19,1.12-11.7,3.34Z"/>
    <polygon class="cls-3" points="665.89 800.98 639.67 770.25 631.05 770.25 604.95 800.96 604.95 735.02 589.78 735.02 589.78 823.6 604.95 823.6 635.45 785.74 666.54 823.6 681.07 823.6 681.07 735.02 665.89 735.02 665.89 800.98"/>
    <path class="cls-3" d="M766.44,738.49c-3.52-2.23-7.42-3.34-11.7-3.34h-30.99c-4.2,0-8.08,1.12-11.64,3.34-3.56,2.23-6.36,5.23-8.42,9-2.06,3.77-3.09,7.89-3.09,12.34v63.9h15.17v-37.8h46.93v37.8h15.04v-63.9c0-4.46-1.01-8.57-3.02-12.34-2.02-3.77-4.78-6.77-8.29-9ZM762.71,771.4h-46.93v-11.57c0-2.57.79-4.78,2.38-6.62,1.59-1.84,3.45-2.76,5.59-2.76h30.99c1.37,0,2.68.43,3.92,1.29,1.24.86,2.23,1.99,2.96,3.41.73,1.41,1.09,2.98,1.09,4.69v11.57Z"/>
    <path class="cls-3" d="M859.53,799.17c0,2.49-.77,4.65-2.31,6.49-1.54,1.84-3.43,2.76-5.66,2.76h-38.83v-73.16h-15.17v88.59h54c4.28,0,8.18-1.11,11.7-3.34,3.51-2.23,6.3-5.21,8.36-8.94,2.06-3.73,3.09-7.78,3.09-12.15v-64.29h-15.17v64.03Z"/>
    <path class="cls-3" d="M911.47,753.14c1.54-1.8,3.47-2.7,5.79-2.7h46.67v-15.3h-46.93c-4.29,0-8.19,1.12-11.7,3.34-3.51,2.23-6.28,5.23-8.29,9-2.02,3.77-3.02,7.89-3.02,12.34v39.22c0,4.46,1.01,8.57,3.02,12.34,2.01,3.77,4.78,6.77,8.29,9,3.51,2.23,7.41,3.34,11.7,3.34h46.93v-15.43h-46.67c-2.31,0-4.24-.9-5.79-2.7-1.54-1.8-2.31-3.99-2.31-6.56v-13.12h47.32v-14.4h-47.32v-11.7c0-2.66.77-4.89,2.31-6.69Z"/>
  </g>
  <path class="cls-2" d="M797.47,568.06l51.23-82.8h-24.11l18.88-52.16-56.35,72.33h26.43l-18.82,61.38c-1.09-.33-2.25-.52-3.45-.52-.61,0-1.2.06-1.78.15l-15.41-37.49c2.94-2.14,4.86-5.6,4.86-9.52,0-6.5-5.27-11.77-11.77-11.77s-11.77,5.27-11.77,11.77c0,.05,0,.1,0,.16l-41.95,10.76c-1.98-3.72-5.89-6.25-10.39-6.25-6.25,0-11.34,4.87-11.73,11.01l-43.22,7.56c-1.39-3.18-4.13-5.62-7.5-6.6l1.52-32.92,1.7-36.85c5.43-1.05,9.53-5.82,9.53-11.55,0-6.5-5.27-11.77-11.77-11.77-.73,0-1.44.08-2.14.2l-17.83-39.86c2.22-2.14,3.61-5.14,3.61-8.47,0-6.5-5.27-11.77-11.77-11.77-4.55,0-8.49,2.59-10.45,6.36l-55.77-3.58c-.97-5.53-5.78-9.73-11.58-9.73-6.5,0-11.77,5.27-11.77,11.77,0,.34.02.68.05,1.02l-50.99,16.87c-2.08-3.33-5.77-5.55-9.98-5.55-6.5,0-11.77,5.27-11.77,11.77,0,3.22,1.3,6.14,3.4,8.27l-42.21,68.21c-1.15-.38-2.38-.59-3.66-.59-6.5,0-11.77,5.27-11.77,11.77,0,4.23,2.24,7.93,5.58,10l-51.23,82.8h24.11l-18.88,52.16,56.35-72.33h-26.43l18.82-61.38c1.09.33,2.25.52,3.45.52.61,0,1.2-.06,1.78-.15l15.42,37.49c-2.94,2.14-4.86,5.6-4.86,9.52,0,6.5,5.27,11.77,11.77,11.77s11.77-5.27,11.77-11.77c0-.05,0-.1,0-.16l41.95-10.76c1.98,3.72,5.89,6.25,10.39,6.25,6.25,0,11.34-4.87,11.73-11.01l43.23-7.56c1.39,3.18,4.13,5.62,7.5,6.6l-1.51,32.89-1.7,36.88c-5.43,1.05-9.53,5.82-9.53,11.55,0,6.5,5.27,11.77,11.77,11.77.73,0,1.44-.08,2.14-.2l.4.91,17.42,38.96c-2.22,2.14-3.61,5.14-3.61,8.47,0,6.5,5.27,11.77,11.77,11.77,4.55,0,8.49-2.59,10.45-6.36l55.77,3.58c.97,5.53,5.78,9.73,11.58,9.73,6.5,0,11.77-5.27,11.77-11.77,0-.34-.02-.68-.05-1.02l50.99-16.87c2.08,3.33,5.77,5.55,9.98,5.55,6.5,0,11.77-5.27,11.77-11.77,0-3.22-1.3-6.14-3.4-8.27l42.21-68.21c1.15.38,2.38.59,3.66.59,6.5,0,11.77-5.27,11.77-11.77,0-4.23-2.24-7.93-5.58-10ZM737.04,653.96c-.25,0-.5.02-.74.04l-10.75-34.61c3.43-2.06,5.74-5.8,5.74-10.09,0-.69-.07-1.36-.19-2.02l50.82-22.11c.31.41.64.8,1,1.17l-42.21,68.21c-1.15-.38-2.38-.59-3.66-.59ZM417.09,491.42l42.21-68.21c1.15.38,2.38.59,3.66.59.25,0,.5-.02.75-.04l10.75,34.61c-3.43,2.06-5.74,5.8-5.74,10.09,0,.69.07,1.36.19,2.02l-50.81,22.11c-.31-.41-.64-.8-1-1.17ZM707.75,608.93l-55.98,11.74c-.49-1.02-1.11-1.95-1.85-2.78l48.94-71.03c1.25.48,2.59.75,4,.78l11.44,51.11c-3.79,1.87-6.42,5.71-6.55,10.18ZM569.95,620.6c-.26-1.26-.73-2.44-1.36-3.52l62.39-59.79c1.24.79,2.63,1.36,4.13,1.65l2.72,55.51c-3.88,1.14-6.92,4.23-8.01,8.14l-59.87-1.98ZM606.84,404.59c1.89,1.28,4.16,2.04,6.62,2.04,1.16,0,2.29-.18,3.35-.49l17.58,39.32c-1.98,1.53-3.45,3.68-4.14,6.16l-59.87-1.98c-.31-1.49-.9-2.87-1.7-4.09l38.17-40.95ZM626.79,542.14l-52.34-11.93c-.03-2.1-.61-4.06-1.59-5.75l62.39-59.79c.93.6,1.96,1.07,3.05,1.39l-3.21,69.77c-3.64.7-6.68,3.09-8.29,6.31ZM570.18,455.16l59.87,1.98c.26,1.26.73,2.44,1.36,3.52l-62.39,59.79c-1.24-.79-2.63-1.36-4.13-1.65l-2.72-55.5c3.88-1.14,6.92-4.23,8.01-8.14ZM573.21,535.61l15.36,3.5,36.98,8.43c.03,2.1.61,4.06,1.59,5.75l-62.39,59.79c-.93-.6-1.96-1.07-3.04-1.39l3.21-69.77c3.64-.7,6.68-3.09,8.29-6.31ZM694.3,543.71l-48.94,71.03c-.64-.25-1.31-.44-2-.57l-2.72-55.51c4.65-1.37,8.09-5.52,8.41-10.53l43.22-7.56c.5,1.16,1.19,2.21,2.02,3.14ZM603.11,400.47l-38.49,41.3c-1.71-.96-3.67-1.52-5.77-1.52-.43,0-.84.03-1.26.07l-15.32-42.67c2.18-1.48,3.83-3.68,4.63-6.25l54.79,3.51c.01,2.01.52,3.9,1.42,5.56ZM531.61,398.96c1.26.46,2.62.73,4.04.73.49,0,.96-.04,1.43-.1l15.29,42.6c-3.1,2.04-5.16,5.51-5.28,9.46l-55.98,11.74c-.49-1.02-1.12-1.96-1.86-2.79l42.36-61.65ZM492.25,468.82l55.98-11.74c.49,1.02,1.11,1.95,1.85,2.78l-48.94,71.03c-1.25-.48-2.59-.75-4-.78l-11.44-51.11c3.79-1.87,6.42-5.71,6.55-10.19ZM505.7,534.04l48.94-71.03c.64.25,1.31.44,2,.57l2.72,55.5c-4.65,1.37-8.09,5.52-8.41,10.53l-43.22,7.56c-.5-1.16-1.19-2.21-2.03-3.14ZM565.61,632.3c1.98-1.53,3.45-3.68,4.14-6.16l59.87,1.98c.31,1.49.9,2.87,1.7,4.09l-38.17,40.95c-1.89-1.28-4.16-2.04-6.62-2.04-1.16,0-2.29.18-3.35.49l-13.36-29.86-4.23-9.45ZM596.89,677.28l38.49-41.29c1.71.96,3.67,1.52,5.77,1.52.43,0,.84-.03,1.26-.07l15.32,42.67c-2.18,1.48-3.83,3.68-4.63,6.25l-54.79-3.51c-.01-2.01-.52-3.9-1.42-5.56ZM668.39,678.79c-1.26-.46-2.62-.73-4.04-.73-.49,0-.96.04-1.43.1l-15.29-42.6c3.1-2.04,5.16-5.51,5.28-9.47l55.98-11.74c.49,1.02,1.12,1.96,1.86,2.79l-42.36,61.65ZM784.37,568.55c-2.94,2.14-4.86,5.6-4.86,9.52,0,.69.07,1.36.19,2.02l-50.81,22.11c-.47-.62-.99-1.19-1.57-1.7l36.96-69.66c.93.24,1.9.38,2.91.38.61,0,1.2-.06,1.78-.15l15.41,37.49ZM756.78,524.96c.66,1.24,1.55,2.35,2.59,3.28l-36.96,69.66c-.87-.22-1.77-.35-2.7-.37l-11.44-51.11c3.89-1.92,6.57-5.92,6.57-10.55,0-.06,0-.11,0-.16l41.95-10.75ZM525.7,394.18c.38.61.82,1.17,1.3,1.7l-42.31,61.59c-1.3-.5-2.71-.78-4.19-.78-.25,0-.5.02-.75.04l-10.75-34.61c3.43-2.06,5.74-5.8,5.74-10.09,0-.32-.02-.64-.05-.96l51.01-16.88ZM415.63,509.2c2.94-2.14,4.86-5.6,4.86-9.52,0-.69-.07-1.36-.19-2.02l50.81-22.11c.47.62.99,1.19,1.57,1.7l-36.96,69.66c-.93-.24-1.9-.38-2.91-.38-.61,0-1.2.06-1.78.15l-15.41-37.49ZM443.22,552.79c-.66-1.24-1.55-2.35-2.59-3.28l36.96-69.66c.87.22,1.77.35,2.7.37l11.44,51.11c-3.89,1.92-6.57,5.92-6.57,10.55,0,.06,0,.11,0,.16l-41.95,10.75ZM674.3,683.57c-.38-.61-.82-1.17-1.3-1.7l42.32-61.59c1.3.5,2.71.78,4.19.78.25,0,.5-.02.74-.04l10.75,34.61c-3.43,2.06-5.74,5.8-5.74,10.09,0,.32.02.64.05.96l-51.01,16.88Z"/>
  <g>
    <path class="cls-3" d="M438.33,853.01h4.1v32.06h-4.1v-32.06ZM441.3,880.66h7.76c2.41,0,4.49-.46,6.24-1.4,1.74-.93,3.07-2.28,3.99-4.04.92-1.76,1.37-3.83,1.37-6.21s-.46-4.41-1.37-6.17c-.92-1.76-2.25-3.11-3.99-4.06-1.75-.94-3.82-1.42-6.24-1.42h-7.55v-4.36h7.63c3.14,0,5.9.65,8.27,1.96,2.37,1.31,4.2,3.17,5.5,5.58,1.29,2.41,1.94,5.23,1.94,8.46s-.65,6.05-1.94,8.46c-1.29,2.41-3.13,4.28-5.5,5.61-2.37,1.32-5.12,1.98-8.27,1.98h-7.85v-4.41Z"/>
    <path class="cls-3" d="M469.43,862.04h4.01v23.03h-4.01v-23.03ZM472.96,866.09h.52c.46-1.31,1.18-2.31,2.16-3.01.97-.7,2.13-1.05,3.47-1.05h1.22v3.79h-1.05c-1.86,0-3.27.58-4.23,1.75-.96,1.16-1.5,2.72-1.61,4.67h-.48v-6.15Z"/>
    <path class="cls-3" d="M484.44,855.19h4.32v4.01h-4.32v-4.01ZM484.57,862.04h4.01v23.03h-4.01v-23.03Z"/>
    <path class="cls-3" d="M492.5,862.04h4.01l7.15,19.72h-.79l7.11-19.72h4.01l-8.64,23.03h-4.23l-8.64-23.03Z"/>
    <path class="cls-3" d="M521.88,884.11c-1.85-1.08-3.29-2.54-4.34-4.41-1.05-1.86-1.57-3.94-1.57-6.24s.49-4.2,1.46-6.06c.97-1.86,2.34-3.34,4.1-4.43,1.76-1.09,3.76-1.64,6-1.64,3.23,0,5.8,1,7.72,3.01,1.92,2.01,2.88,5.15,2.88,9.42v1.35h-19.93v-2.84h16.23v-.48c0-2.18-.65-3.83-1.96-4.95s-2.97-1.68-4.97-1.68c-1.42,0-2.71.34-3.86,1.03-1.15.68-2.06,1.65-2.73,2.9-.67,1.25-1,2.69-1,4.32s.35,3.16,1.05,4.43c.7,1.26,1.69,2.25,2.97,2.94s2.76,1.05,4.45,1.05c1.19,0,2.3-.2,3.32-.59,1.02-.39,1.9-.91,2.66-1.55l2.31,2.66c-.96,1.05-2.17,1.87-3.64,2.46-1.47.6-3.09.89-4.86.89-2.33,0-4.41-.54-6.26-1.61Z"/>
    <path class="cls-3" d="M551.87,853.01h19.98v3.88h-19.98v-3.88ZM559.81,853.01h4.1v32.06h-4.1v-32.06Z"/>
    <path class="cls-3" d="M576.6,852.44h4.01v32.63h-4.01v-32.63ZM590.58,866.38c-1-.83-2.25-1.24-3.73-1.24-1.69,0-3.06.49-4.12,1.46s-1.77,2.28-2.12,3.9h-.48v-5.06h.52c.73-1.37,1.75-2.39,3.07-3.08,1.32-.68,2.78-1.02,4.38-1.02,1.45,0,2.78.28,3.99.85,1.21.57,2.18,1.47,2.92,2.7.74,1.24,1.11,2.84,1.11,4.82v15.35h-4.06v-14.35c0-2.06-.5-3.51-1.5-4.34Z"/>
    <path class="cls-3" d="M606.41,884.11c-1.85-1.08-3.29-2.54-4.34-4.41-1.05-1.86-1.57-3.94-1.57-6.24s.49-4.2,1.46-6.06c.97-1.86,2.34-3.34,4.1-4.43,1.76-1.09,3.76-1.64,6-1.64,3.23,0,5.8,1,7.72,3.01,1.92,2.01,2.88,5.15,2.88,9.42v1.35h-19.93v-2.84h16.23v-.48c0-2.18-.65-3.83-1.96-4.95s-2.97-1.68-4.97-1.68c-1.43,0-2.71.34-3.86,1.03-1.15.68-2.06,1.65-2.73,2.9s-1,2.69-1,4.32.35,3.16,1.05,4.43,1.69,2.25,2.97,2.94,2.76,1.05,4.45,1.05c1.19,0,2.3-.2,3.31-.59s1.9-.91,2.66-1.55l2.31,2.66c-.96,1.05-2.17,1.87-3.64,2.46-1.47.6-3.09.89-4.86.89-2.33,0-4.41-.54-6.26-1.61Z"/>
    <path class="cls-3" d="M637.1,853.01h4.1v32.06h-4.1v-32.06ZM639.06,853.01h16.23v3.88h-16.23v-3.88ZM639.15,867.27h15.92v3.88h-15.92v-3.88Z"/>
    <path class="cls-3" d="M663.9,884.91c-1.21-.57-2.18-1.47-2.92-2.71-.74-1.24-1.11-2.84-1.11-4.82v-15.35h4.06v14.35c0,2.06.51,3.51,1.53,4.34,1.02.83,2.25,1.24,3.71,1.24,1.72,0,3.1-.49,4.14-1.46s1.75-2.28,2.09-3.9h.48v5.06h-.52c-.73,1.37-1.75,2.39-3.07,3.08-1.32.68-2.77,1.03-4.34,1.03-1.48,0-2.83-.28-4.03-.85ZM675.39,862.04h4.01v23.03h-4.01v-23.03Z"/>
    <path class="cls-3" d="M683.72,862.04h13.91v3.49h-13.91v-3.49ZM689.22,883.93c-1.13-1.22-1.7-3-1.7-5.32v-23.42h4.01l.04,6.85-.13,3.49.04,13.09c0,1.16.29,2.02.87,2.57.58.55,1.34.83,2.27.83s1.83-.28,2.7-.83l1.53,2.79c-.58.55-1.29.99-2.14,1.31-.84.32-1.8.48-2.88.48-1.95,0-3.49-.61-4.62-1.83Z"/>
    <path class="cls-3" d="M706.6,884.91c-1.21-.57-2.18-1.47-2.92-2.71-.74-1.24-1.11-2.84-1.11-4.82v-15.35h4.06v14.35c0,2.06.51,3.51,1.53,4.34,1.02.83,2.25,1.24,3.71,1.24,1.72,0,3.1-.49,4.14-1.46s1.75-2.28,2.09-3.9h.48v5.06h-.52c-.73,1.37-1.75,2.39-3.07,3.08-1.32.68-2.77,1.03-4.34,1.03-1.48,0-2.83-.28-4.03-.85ZM718.09,862.04h4.01v23.03h-4.01v-23.03Z"/>
    <path class="cls-3" d="M727.3,862.04h4.01v23.03h-4.01v-23.03ZM730.83,866.09h.52c.46-1.31,1.18-2.31,2.16-3.01.97-.7,2.13-1.05,3.47-1.05h1.22v3.79h-1.05c-1.86,0-3.27.58-4.23,1.75s-1.5,2.72-1.61,4.67h-.48v-6.15Z"/>
    <path class="cls-3" d="M746.34,884.11c-1.85-1.08-3.29-2.54-4.34-4.41-1.05-1.86-1.57-3.94-1.57-6.24s.49-4.2,1.46-6.06c.97-1.86,2.34-3.34,4.1-4.43,1.76-1.09,3.76-1.64,6-1.64,3.23,0,5.8,1,7.72,3.01,1.92,2.01,2.88,5.15,2.88,9.42v1.35h-19.93v-2.84h16.23v-.48c0-2.18-.65-3.83-1.96-4.95s-2.97-1.68-4.97-1.68c-1.43,0-2.71.34-3.86,1.03-1.15.68-2.06,1.65-2.73,2.9s-1,2.69-1,4.32.35,3.16,1.05,4.43,1.69,2.25,2.97,2.94,2.76,1.05,4.45,1.05c1.19,0,2.3-.2,3.31-.59s1.9-.91,2.66-1.55l2.31,2.66c-.96,1.05-2.17,1.87-3.64,2.46-1.47.6-3.09.89-4.86.89-2.33,0-4.41-.54-6.26-1.61Z"/>
  </g>
</svg>